<?xml version="1.0" standalone="no"?>
<!DOCTYPE svg PUBLIC "-//W3C//DTD SVG 20010904//EN"
 "http://www.w3.org/TR/2001/REC-SVG-20010904/DTD/svg10.dtd">
<svg version="1.0" xmlns="http://www.w3.org/2000/svg"
 width="225.000000pt" height="225.000000pt" viewBox="0 0 225.000000 225.000000"
 preserveAspectRatio="xMidYMid meet">
<metadata>
Created by potrace 1.14, written by Peter Selinger 2001-2017
</metadata>
<g transform="translate(0.000000,225.000000) scale(0.100000,-0.100000)"
fill="#000000" stroke="none">
<path d="M1005 2030 c-95 -15 -180 -41 -270 -85 -249 -122 -412 -324 -487
-603 -29 -112 -29 -304 1 -427 67 -276 273 -519 530 -624 131 -55 192 -66 361
-65 139 1 164 3 243 27 252 77 447 239 562 467 146 288 122 654 -58 920 -54
79 -170 191 -259 250 -177 118 -416 171 -623 140z m283 -156 c47 -9 118 -35
181 -65 91 -45 115 -62 195 -142 103 -104 155 -185 192 -302 36 -114 47 -216
34 -322 -49 -389 -367 -673 -754 -673 -137 0 -222 20 -341 79 -373 186 -529
632 -350 1006 152 317 497 489 843 419z"/>
<path d="M510 1370 l0 -50 110 0 110 0 0 -265 0 -265 55 0 55 0 2 263 3 262
108 3 107 3 0 49 0 50 -275 0 -275 0 0 -50z"/>
<path d="M1106 1378 c-3 -24 -12 -149 -21 -278 -8 -129 -17 -252 -20 -272 l-5
-38 55 0 c66 0 60 -17 75 215 6 93 13 171 14 172 1 2 38 -85 82 -192 l79 -196
38 3 39 3 76 187 c41 103 79 185 82 183 4 -2 10 -57 14 -122 4 -65 9 -148 13
-185 l6 -68 53 0 c49 0 54 2 54 23 0 12 -9 141 -20 287 -11 146 -20 278 -20
293 0 28 -1 28 -57 25 l-57 -3 -91 -229 -92 -228 -93 231 -92 231 -53 0 -54 0
-5 -42z"/>
</g>
</svg>
